<svg xmlns="http://www.w3.org/2000/svg" viewBox="0 0 240 240">
    <defs>
        <!-- Gradients -->
        <linearGradient id="blueGradient" x1="0%" y1="0%" x2="100%" y2="100%">
            <stop offset="0%" stop-color="#60a5fa"/>
            <stop offset="100%" stop-color="#3b82f6"/>
        </linearGradient>

        <linearGradient id="tealGradient" x1="0%" y1="0%" x2="100%" y2="100%">
            <stop offset="0%" stop-color="#5eead4"/>
            <stop offset="100%" stop-color="#14b8a6"/>
        </linearGradient>

        <linearGradient id="purpleGradient" x1="0%" y1="0%" x2="100%" y2="100%">
            <stop offset="0%" stop-color="#a78bfa"/>
            <stop offset="100%" stop-color="#8b5cf6"/>
        </linearGradient>

        <linearGradient id="bgGradient" gradientTransform="rotate(45)">
            <stop offset="0%" stop-color="#0f172a"/>
            <stop offset="100%" stop-color="#1e293b"/>
        </linearGradient>

        <!-- Filters -->
        <filter id="glow" x="-20%" y="-20%" width="140%" height="140%">
            <feGaussianBlur stdDeviation="4" result="blur"/>
            <feComposite in="SourceGraphic" in2="blur" operator="over"/>
        </filter>

        <!-- Patterns -->
        <pattern id="grid" width="20" height="20" patternUnits="userSpaceOnUse">
            <path d="M 20 0 L 0 0 0 20" fill="none" stroke="#334155" stroke-width="0.5" opacity="0.3"/>
        </pattern>
    </defs>

    <!-- Background -->
    <circle cx="120" cy="120" r="120" fill="url(#bgGradient)"/>
    <circle cx="120" cy="120" r="118" fill="none" stroke="#475569" stroke-width="1" opacity="0.6"/>
    <rect x="0" y="0" width="240" height="240" fill="url(#grid)"/>

    <!-- Abstract circuit board pattern -->
    <path d="M 40 120 L 60 120 L 60 80 L 100 80 L 100 40" stroke="#475569" stroke-width="1" fill="none"/>
    <path d="M 40 160 L 60 160 L 60 200 L 100 200 L 100 220" stroke="#475569" stroke-width="1" fill="none"/>
    <path d="M 200 120 L 180 120 L 180 80 L 140 80 L 140 40" stroke="#475569" stroke-width="1" fill="none"/>
    <path d="M 200 160 L 180 160 L 180 200 L 140 200 L 140 220" stroke="#475569" stroke-width="1" fill="none"/>

    <!-- Circuit nodes -->
    <circle cx="60" cy="120" r="3" fill="#94a3b8"/>
    <circle cx="60" cy="160" r="3" fill="#94a3b8"/>
    <circle cx="180" cy="120" r="3" fill="#94a3b8"/>
    <circle cx="180" cy="160" r="3" fill="#94a3b8"/>
    <circle cx="100" cy="80" r="3" fill="#94a3b8"/>
    <circle cx="140" cy="80" r="3" fill="#94a3b8"/>
    <circle cx="100" cy="200" r="3" fill="#94a3b8"/>
    <circle cx="140" cy="200" r="3" fill="#94a3b8"/>

    <!-- Central design element - Geometric S with code symbols -->
    <g transform="translate(120, 120)">
        <!-- Rotating inner circle -->
        <circle cx="0" cy="0" r="65" fill="none" stroke="url(#blueGradient)" stroke-width="2" stroke-dasharray="3,3"
                opacity="0.6">
            <animateTransform
                    attributeName="transform"
                    attributeType="XML"
                    type="rotate"
                    from="0"
                    to="360"
                    dur="60s"
                    repeatCount="indefinite"/>
        </circle>

        <!-- Stylized S form -->
        <path d="M -20 -40 C 0 -40, 30 -30, 30 -10 C 30 10, 0 15, -20 15 C -40 15, -50 25, -50 40 C -50 55, -30 65, -10 65"
              fill="none" stroke="url(#tealGradient)" stroke-width="6" stroke-linecap="round" filter="url(#glow)"/>

        <!-- Code brackets -->
        <path d="M -40 -30 L -60 0 L -40 30" fill="none" stroke="url(#blueGradient)" stroke-width="4"
              stroke-linecap="round"/>
        <path d="M 40 -30 L 60 0 L 40 30" fill="none" stroke="url(#blueGradient)" stroke-width="4"
              stroke-linecap="round"/>

        <!-- Floating code elements -->
        <g>
            <rect x="-25" y="-55" width="50" height="12" rx="2" fill="#1e293b" stroke="#475569" stroke-width="1"/>
            <text x="0" y="-46" font-family="monospace" font-size="8" fill="#94a3b8" text-anchor="middle">function()
            </text>
            <animateTransform
                    attributeName="transform"
                    attributeType="XML"
                    type="translate"
                    values="0,0; 0,-5; 0,0"
                    dur="3s"
                    repeatCount="indefinite"/>
        </g>

        <g>
            <rect x="-20" y="40" width="40" height="12" rx="2" fill="#1e293b" stroke="#475569" stroke-width="1"/>
            <text x="0" y="49" font-family="monospace" font-size="8" fill="#94a3b8" text-anchor="middle">return</text>
            <animateTransform
                    attributeName="transform"
                    attributeType="XML"
                    type="translate"
                    values="0,0; 0,5; 0,0"
                    dur="4s"
                    repeatCount="indefinite"/>
        </g>

        <!-- Animated particles -->
        <circle cx="0" cy="0" r="2" fill="#5eead4">
            <animateMotion
                    path="M 0 0 C 20 -30, 40 -20, 30 0 C 20 20, -20 20, -30 0 C -40 -20, -20 -30, 0 0 Z"
                    dur="4s"
                    repeatCount="indefinite"/>
        </circle>

        <circle cx="0" cy="0" r="2" fill="#60a5fa">
            <animateMotion
                    path="M 0 0 C 20 -30, 40 -20, 30 0 C 20 20, -20 20, -30 0 C -40 -20, -20 -30, 0 0 Z"
                    dur="4s"
                    begin="2s"
                    repeatCount="indefinite"/>
        </circle>

        <!-- Central pulse -->
        <circle cx="0" cy="0" r="10" fill="url(#purpleGradient)" opacity="0.7">
            <animate
                    attributeName="r"
                    values="8;12;8"
                    dur="2s"
                    repeatCount="indefinite"/>
        </circle>
    </g>

    <!-- Outer decorative elements -->
    <path d="M 120 10 L 120 25" stroke="#475569" stroke-width="1"/>
    <path d="M 120 215 L 120 230" stroke="#475569" stroke-width="1"/>
    <path d="M 10 120 L 25 120" stroke="#475569" stroke-width="1"/>
    <path d="M 215 120 L 230 120" stroke="#475569" stroke-width="1"/>
</svg>